<svg viewBox="0 0 1200 1600" xmlns="http://www.w3.org/2000/svg">
  <defs>
    <linearGradient id="bgGradient" x1="0%" y1="0%" x2="100%" y2="100%">
      <stop offset="0%" style="stop-color:#1e1e2e;stop-opacity:1" />
      <stop offset="100%" style="stop-color:#2d3748;stop-opacity:1" />
    </linearGradient>
    
    <linearGradient id="cardGradient" x1="0%" y1="0%" x2="100%" y2="100%">
      <stop offset="0%" style="stop-color:#ffffff;stop-opacity:0.08" />
      <stop offset="100%" style="stop-color:#ffffff;stop-opacity:0.02" />
    </linearGradient>
    
    <linearGradient id="keyGradient" x1="0%" y1="0%" x2="100%" y2="100%">
      <stop offset="0%" style="stop-color:#4a5568;stop-opacity:1" />
      <stop offset="100%" style="stop-color:#2d3748;stop-opacity:1" />
    </linearGradient>
    
    <filter id="glow">
      <feGaussianBlur stdDeviation="3" result="coloredBlur"/>
      <feMerge> 
        <feMergeNode in="coloredBlur"/>
        <feMergeNode in="SourceGraphic"/>
      </feMerge>
    </filter>
    
    <filter id="shadow">
      <feDropShadow dx="0" dy="4" stdDeviation="8" flood-color="#000" flood-opacity="0.3"/>
    </filter>
  </defs>
  
  <!-- Background -->
  <rect width="100%" height="100%" fill="url(#bgGradient)"/>
  
  <!-- Title -->
  <text x="600" y="60" text-anchor="middle" fill="#4fd1c7" font-family="Arial, sans-serif" font-size="36" font-weight="bold" filter="url(#glow)">🎮 Game Control Scheme</text>
  
  <!-- Keyboard Section -->
  <rect x="50" y="100" width="540" height="700" rx="20" fill="url(#cardGradient)" stroke="#4fd1c7" stroke-width="1" stroke-opacity="0.3" filter="url(#shadow)"/>
  
  <!-- Keyboard Title -->
  <text x="80" y="140" fill="#4fd1c7" font-family="Arial, sans-serif" font-size="24" font-weight="bold">⌨️ Keyboard Controls</text>
  
  <!-- Movement Section -->
  <text x="80" y="180" fill="#ffd700" font-family="Arial, sans-serif" font-size="18" font-weight="bold">Movement</text>
  <line x1="80" y1="185" x2="200" y2="185" stroke="#ffd700" stroke-width="2" stroke-opacity="0.3"/>
  
  <!-- Movement Controls -->
  <rect x="80" y="200" width="480" height="35" rx="8" fill="rgba(255,255,255,0.08)" stroke="#4fd1c7" stroke-width="2"/>
  <text x="100" y="222" fill="#e2e8f0" font-family="Arial, sans-serif" font-size="14" font-weight="500">Move Up</text>
  <rect x="500" y="207" width="30" height="20" rx="5" fill="url(#keyGradient)" stroke="#4fd1c7"/>
  <text x="515" y="220" text-anchor="middle" fill="#e2e8f0" font-family="Courier New, monospace" font-size="12" font-weight="bold">W</text>
  
  <rect x="80" y="245" width="480" height="35" rx="8" fill="rgba(255,255,255,0.08)" stroke="#4fd1c7" stroke-width="2"/>
  <text x="100" y="267" fill="#e2e8f0" font-family="Arial, sans-serif" font-size="14" font-weight="500">Move Down</text>
  <rect x="500" y="252" width="30" height="20" rx="5" fill="url(#keyGradient)" stroke="#4fd1c7"/>
  <text x="515" y="265" text-anchor="middle" fill="#e2e8f0" font-family="Courier New, monospace" font-size="12" font-weight="bold">S</text>
  
  <rect x="80" y="290" width="480" height="35" rx="8" fill="rgba(255,255,255,0.08)" stroke="#4fd1c7" stroke-width="2"/>
  <text x="100" y="312" fill="#e2e8f0" font-family="Arial, sans-serif" font-size="14" font-weight="500">Move Left</text>
  <rect x="500" y="297" width="30" height="20" rx="5" fill="url(#keyGradient)" stroke="#4fd1c7"/>
  <text x="515" y="310" text-anchor="middle" fill="#e2e8f0" font-family="Courier New, monospace" font-size="12" font-weight="bold">A</text>
  
  <rect x="80" y="335" width="480" height="35" rx="8" fill="rgba(255,255,255,0.08)" stroke="#4fd1c7" stroke-width="2"/>
  <text x="100" y="357" fill="#e2e8f0" font-family="Arial, sans-serif" font-size="14" font-weight="500">Move Right</text>
  <rect x="500" y="342" width="30" height="20" rx="5" fill="url(#keyGradient)" stroke="#4fd1c7"/>
  <text x="515" y="355" text-anchor="middle" fill="#e2e8f0" font-family="Courier New, monospace" font-size="12" font-weight="bold">D</text>
  
  <!-- Actions Section -->
  <text x="80" y="410" fill="#ffd700" font-family="Arial, sans-serif" font-size="18" font-weight="bold">Actions</text>
  <line x1="80" y1="415" x2="160" y2="415" stroke="#ffd700" stroke-width="2" stroke-opacity="0.3"/>
  
  <!-- Action Controls -->
  <rect x="80" y="430" width="480" height="35" rx="8" fill="rgba(255,255,255,0.08)" stroke="#4fd1c7" stroke-width="2"/>
  <text x="100" y="452" fill="#e2e8f0" font-family="Arial, sans-serif" font-size="14" font-weight="500">Interact</text>
  <rect x="500" y="437" width="30" height="20" rx="5" fill="url(#keyGradient)" stroke="#4fd1c7"/>
  <text x="515" y="450" text-anchor="middle" fill="#e2e8f0" font-family="Courier New, monospace" font-size="12" font-weight="bold">E</text>
  
  <rect x="80" y="475" width="480" height="35" rx="8" fill="rgba(255,255,255,0.08)" stroke="#4fd1c7" stroke-width="2"/>
  <text x="100" y="497" fill="#e2e8f0" font-family="Arial, sans-serif" font-size="14" font-weight="500">Melee Attack</text>
  <rect x="500" y="482" width="30" height="20" rx="5" fill="url(#keyGradient)" stroke="#4fd1c7"/>
  <text x="515" y="495" text-anchor="middle" fill="#e2e8f0" font-family="Courier New, monospace" font-size="12" font-weight="bold">F</text>
  
  <rect x="80" y="520" width="480" height="35" rx="8" fill="rgba(255,255,255,0.08)" stroke="#4fd1c7" stroke-width="2"/>
  <text x="100" y="542" fill="#e2e8f0" font-family="Arial, sans-serif" font-size="14" font-weight="500">Pick Up Object</text>
  <rect x="500" y="527" width="30" height="20" rx="5" fill="url(#keyGradient)" stroke="#4fd1c7"/>
  <text x="515" y="540" text-anchor="middle" fill="#e2e8f0" font-family="Courier New, monospace" font-size="12" font-weight="bold">V</text>
  
  <rect x="80" y="565" width="480" height="35" rx="8" fill="rgba(255,255,255,0.08)" stroke="#4fd1c7" stroke-width="2"/>
  <text x="100" y="587" fill="#e2e8f0" font-family="Arial, sans-serif" font-size="14" font-weight="500">Jump</text>
  <rect x="470" y="572" width="60" height="20" rx="5" fill="url(#keyGradient)" stroke="#4fd1c7"/>
  <text x="500" y="585" text-anchor="middle" fill="#e2e8f0" font-family="Courier New, monospace" font-size="11" font-weight="bold">SPACE</text>
  
  <rect x="80" y="610" width="480" height="35" rx="8" fill="rgba(255,255,255,0.08)" stroke="#4fd1c7" stroke-width="2"/>
  <text x="100" y="632" fill="#e2e8f0" font-family="Arial, sans-serif" font-size="14" font-weight="500">Crouch</text>
  <rect x="460" y="617" width="70" height="20" rx="5" fill="url(#keyGradient)" stroke="#4fd1c7"/>
  <text x="495" y="630" text-anchor="middle" fill="#e2e8f0" font-family="Courier New, monospace" font-size="11" font-weight="bold">LEFT CTRL</text>
  
  <rect x="80" y="655" width="480" height="35" rx="8" fill="rgba(255,255,255,0.08)" stroke="#4fd1c7" stroke-width="2"/>
  <text x="100" y="677" fill="#e2e8f0" font-family="Arial, sans-serif" font-size="14" font-weight="500">Sprint</text>
  <rect x="450" y="662" width="80" height="20" rx="5" fill="url(#keyGradient)" stroke="#4fd1c7"/>
  <text x="490" y="675" text-anchor="middle" fill="#e2e8f0" font-family="Courier New, monospace" font-size="11" font-weight="bold">LEFT SHIFT</text>
  
  <!-- WASD Visual -->
  <rect x="200" y="720" width="200" height="60" rx="10" fill="rgba(0,0,0,0.2)" stroke="#4fd1c7" stroke-opacity="0.3"/>
  <text x="300" y="740" text-anchor="middle" fill="#ffd700" font-family="Arial, sans-serif" font-size="14" font-weight="bold">WASD Layout</text>
  
  <!-- WASD Keys -->
  <rect x="275" y="745" width="25" height="25" rx="5" fill="url(#keyGradient)" stroke="#4fd1c7"/>
  <text x="287.5" y="760" text-anchor="middle" fill="#e2e8f0" font-family="Arial, sans-serif" font-size="12" font-weight="bold">W</text>
  <rect x="250" y="770" width="25" height="25" rx="5" fill="url(#keyGradient)" stroke="#4fd1c7"/>
  <text x="262.5" y="785" text-anchor="middle" fill="#e2e8f0" font-family="Arial, sans-serif" font-size="12" font-weight="bold">A</text>
  <rect x="275" y="770" width="25" height="25" rx="5" fill="url(#keyGradient)" stroke="#4fd1c7"/>
  <text x="287.5" y="785" text-anchor="middle" fill="#e2e8f0" font-family="Arial, sans-serif" font-size="12" font-weight="bold">S</text>
  <rect x="300" y="770" width="25" height="25" rx="5" fill="url(#keyGradient)" stroke="#4fd1c7"/>
  <text x="312.5" y="785" text-anchor="middle" fill="#e2e8f0" font-family="Arial, sans-serif" font-size="12" font-weight="bold">D</text>
  
  <!-- Controller Section -->
  <rect x="610" y="100" width="540" height="700" rx="20" fill="url(#cardGradient)" stroke="#4fd1c7" stroke-width="1" stroke-opacity="0.3" filter="url(#shadow)"/>
  
  <!-- Controller Title -->
  <text x="640" y="140" fill="#4fd1c7" font-family="Arial, sans-serif" font-size="24" font-weight="bold">🎮 Xbox Controller</text>
  
  <!-- Controller Movement Section -->
  <text x="640" y="180" fill="#ffd700" font-family="Arial, sans-serif" font-size="18" font-weight="bold">Movement</text>
  <line x1="640" y1="185" x2="760" y2="185" stroke="#ffd700" stroke-width="2" stroke-opacity="0.3"/>
  
  <!-- Controller Movement Controls -->
  <rect x="640" y="200" width="480" height="35" rx="8" fill="rgba(255,255,255,0.08)" stroke="#4fd1c7" stroke-width="2"/>
  <text x="660" y="222" fill="#e2e8f0" font-family="Arial, sans-serif" font-size="14" font-weight="500">Move Up</text>
  <rect x="1020" y="207" width="80" height="20" rx="5" fill="url(#keyGradient)" stroke="#4fd1c7"/>
  <text x="1060" y="220" text-anchor="middle" fill="#e2e8f0" font-family="Arial, sans-serif" font-size="10" font-weight="bold">Left Stick ↑</text>
  
  <rect x="640" y="245" width="480" height="35" rx="8" fill="rgba(255,255,255,0.08)" stroke="#4fd1c7" stroke-width="2"/>
  <text x="660" y="267" fill="#e2e8f0" font-family="Arial, sans-serif" font-size="14" font-weight="500">Move Down</text>
  <rect x="1020" y="252" width="80" height="20" rx="5" fill="url(#keyGradient)" stroke="#4fd1c7"/>
  <text x="1060" y="265" text-anchor="middle" fill="#e2e8f0" font-family="Arial, sans-serif" font-size="10" font-weight="bold">Left Stick ↓</text>
  
  <rect x="640" y="290" width="480" height="35" rx="8" fill="rgba(255,255,255,0.08)" stroke="#4fd1c7" stroke-width="2"/>
  <text x="660" y="312" fill="#e2e8f0" font-family="Arial, sans-serif" font-size="14" font-weight="500">Move Left</text>
  <rect x="1020" y="297" width="80" height="20" rx="5" fill="url(#keyGradient)" stroke="#4fd1c7"/>
  <text x="1060" y="310" text-anchor="middle" fill="#e2e8f0" font-family="Arial, sans-serif" font-size="10" font-weight="bold">Left Stick ←</text>
  
  <rect x="640" y="335" width="480" height="35" rx="8" fill="rgba(255,255,255,0.08)" stroke="#4fd1c7" stroke-width="2"/>
  <text x="660" y="357" fill="#e2e8f0" font-family="Arial, sans-serif" font-size="14" font-weight="500">Move Right</text>
  <rect x="1020" y="342" width="80" height="20" rx="5" fill="url(#keyGradient)" stroke="#4fd1c7"/>
  <text x="1060" y="355" text-anchor="middle" fill="#e2e8f0" font-family="Arial, sans-serif" font-size="10" font-weight="bold">Left Stick →</text>
  
  <!-- Controller Actions Section -->
  <text x="640" y="410" fill="#ffd700" font-family="Arial, sans-serif" font-size="18" font-weight="bold">Actions</text>
  <line x1="640" y1="415" x2="720" y2="415" stroke="#ffd700" stroke-width="2" stroke-opacity="0.3"/>
  
  <!-- Controller Action Controls -->
  <rect x="640" y="430" width="480" height="35" rx="8" fill="rgba(255,255,255,0.08)" stroke="#4fd1c7" stroke-width="2"/>
  <text x="660" y="452" fill="#e2e8f0" font-family="Arial, sans-serif" font-size="14" font-weight="500">Interact</text>
  <circle cx="1080" cy="447" r="12" fill="#ffd700" stroke="#4fd1c7"/>
  <text x="1080" y="452" text-anchor="middle" fill="#000" font-family="Arial, sans-serif" font-size="12" font-weight="bold">Y</text>
  
  <rect x="640" y="475" width="480" height="35" rx="8" fill="rgba(255,255,255,0.08)" stroke="#4fd1c7" stroke-width="2"/>
  <text x="660" y="497" fill="#e2e8f0" font-family="Arial, sans-serif" font-size="14" font-weight="500">Melee Attack</text>
  <circle cx="1080" cy="492" r="12" fill="#dc3545" stroke="#4fd1c7"/>
  <text x="1080" y="497" text-anchor="middle" fill="#fff" font-family="Arial, sans-serif" font-size="12" font-weight="bold">B</text>
  
  <rect x="640" y="520" width="480" height="35" rx="8" fill="rgba(255,255,255,0.08)" stroke="#4fd1c7" stroke-width="2"/>
  <text x="660" y="542" fill="#e2e8f0" font-family="Arial, sans-serif" font-size="14" font-weight="500">Pick Up Object</text>
  <rect x="1050" y="532" width="60" height="15" rx="5" fill="url(#keyGradient)" stroke="#4fd1c7"/>
  <text x="1080" y="543" text-anchor="middle" fill="#e2e8f0" font-family="Arial, sans-serif" font-size="10" font-weight="bold">Left Bumper</text>
  
  <rect x="640" y="565" width="480" height="35" rx="8" fill="rgba(255,255,255,0.08)" stroke="#4fd1c7" stroke-width="2"/>
  <text x="660" y="587" fill="#e2e8f0" font-family="Arial, sans-serif" font-size="14" font-weight="500">Jump</text>
  <circle cx="1080" cy="582" r="12" fill="#28a745" stroke="#4fd1c7"/>
  <text x="1080" y="587" text-anchor="middle" fill="#fff" font-family="Arial, sans-serif" font-size="12" font-weight="bold">A</text>
  
  <rect x="640" y="610" width="480" height="35" rx="8" fill="rgba(255,255,255,0.08)" stroke="#4fd1c7" stroke-width="2"/>
  <text x="660" y="632" fill="#e2e8f0" font-family="Arial, sans-serif" font-size="14" font-weight="500">Crouch</text>
  <rect x="1045" y="622" width="70" height="15" rx="5" fill="url(#keyGradient)" stroke="#4fd1c7"/>
  <text x="1080" y="633" text-anchor="middle" fill="#e2e8f0" font-family="Arial, sans-serif" font-size="10" font-weight="bold">Left Trigger</text>
  
  <rect x="640" y="655" width="480" height="35" rx="8" fill="rgba(255,255,255,0.08)" stroke="#4fd1c7" stroke-width="2"/>
  <text x="660" y="677" fill="#e2e8f0" font-family="Arial, sans-serif" font-size="14" font-weight="500">Sprint</text>
  <rect x="1030" y="667" width="100" height="15" rx="5" fill="url(#keyGradient)" stroke="#4fd1c7"/>
  <text x="1080" y="678" text-anchor="middle" fill="#e2e8f0" font-family="Arial, sans-serif" font-size="10" font-weight="bold">Left Stick Press</text>
  
  <!-- Controller Visual -->
  <rect x="760" y="720" width="200" height="60" rx="10" fill="rgba(0,0,0,0.2)" stroke="#4fd1c7" stroke-opacity="0.3"/>
  <text x="860" y="740" text-anchor="middle" fill="#ffd700" font-family="Arial, sans-serif" font-size="14" font-weight="bold">Xbox Button Layout</text>
  
  <!-- Xbox Buttons -->
  <circle cx="830" cy="755" r="12" fill="#ffd700" stroke="#4fd1c7"/>
  <text x="830" y="760" text-anchor="middle" fill="#000" font-family="Arial, sans-serif" font-size="10" font-weight="bold">Y</text>
  <circle cx="860" cy="755" r="12" fill="#dc3545" stroke="#4fd1c7"/>
  <text x="860" y="760" text-anchor="middle" fill="#fff" font-family="Arial, sans-serif" font-size="10" font-weight="bold">B</text>
  <circle cx="890" cy="755" r="12" fill="#28a745" stroke="#4fd1c7"/>
  <text x="890" y="760" text-anchor="middle" fill="#fff" font-family="Arial, sans-serif" font-size="10" font-weight="bold">A</text>
  
  <!-- Mouse Section -->
  <rect x="50" y="820" width="1100" height="200" rx="20" fill="url(#cardGradient)" stroke="#4fd1c7" stroke-width="1" stroke-opacity="0.3" filter="url(#shadow)"/>
  
  <!-- Mouse Title -->
  <text x="80" y="860" fill="#4fd1c7" font-family="Arial, sans-serif" font-size="24" font-weight="bold">🖱️ Mouse Controls</text>
  
  <!-- Mouse Controls -->
  <rect x="80" y="880" width="300" height="35" rx="8" fill="rgba(255,255,255,0.08)" stroke="#4fd1c7" stroke-width="2"/>
  <text x="100" y="902" fill="#e2e8f0" font-family="Arial, sans-serif" font-size="14" font-weight="500">Look Around</text>
  <rect x="300" y="887" width="80" height="20" rx="5" fill="url(#keyGradient)" stroke="#4fd1c7"/>
  <text x="340" y="900" text-anchor="middle" fill="#e2e8f0" font-family="Arial, sans-serif" font-size="11" font-weight="bold">Mouse Move</text>
  
  <rect x="80" y="925" width="300" height="35" rx="8" fill="rgba(255,255,255,0.08)" stroke="#4fd1c7" stroke-width="2"/>
  <text x="100" y="947" fill="#e2e8f0" font-family="Arial, sans-serif" font-size="14" font-weight="500">Shoot</text>
  <rect x="300" y="932" width="60" height="20" rx="5" fill="url(#keyGradient)" stroke="#4fd1c7"/>
  <text x="330" y="945" text-anchor="middle" fill="#e2e8f0" font-family="Arial, sans-serif" font-size="11" font-weight="bold">Left Click</text>
  
  <rect x="80" y="970" width="300" height="35" rx="8" fill="rgba(255,255,255,0.08)" stroke="#4fd1c7" stroke-width="2"/>
  <text x="100" y="992" fill="#e2e8f0" font-family="Arial, sans-serif" font-size="14" font-weight="500">Throw Object</text>
  <rect x="300" y="977" width="70" height="20" rx="5" fill="url(#keyGradient)" stroke="#4fd1c7"/>
  <text x="335" y="990" text-anchor="middle" fill="#e2e8f0" font-family="Arial, sans-serif" font-size="11" font-weight="bold">Right Click</text>
  
  <!-- Mouse Visual -->
  <ellipse cx="600" cy="940" rx="35" ry="50" fill="url(#keyGradient)" stroke="#4fd1c7" stroke-width="2"/>
  <rect x="580" y="915" width="20" height="15" rx="10" fill="rgba(255,255,255,0.1)" stroke="#4fd1c7"/>
  <rect x="600" y="915" width="20" height="15" rx="10" fill="rgba(255,255,255,0.1)" stroke="#4fd1c7"/>
  <text x="590" y="925" text-anchor="middle" fill="#e2e8f0" font-family="Arial, sans-serif" font-size="8">L</text>
  <text x="610" y="925" text-anchor="middle" fill="#e2e8f0" font-family="Arial, sans-serif" font-size="8">R</text>
  <text x="600" y="1020" text-anchor="middle" fill="#a0aec0" font-family="Arial, sans-serif" font-size="12">Move to look around</text>
  
  <!-- Bottom Info -->
  <text x="600" y="1550" text-anchor="middle" fill="#a0aec0" font-family="Arial, sans-serif" font-size="14">High-Quality Game Control Reference</text>
</svg>